<?xml version="1.0" encoding="utf-8"?>
<!-- Generator: Adobe Illustrator 23.0.1, SVG Export Plug-In . SVG Version: 6.00 Build 0)  -->
<svg version="1.1" id="Слой_1" xmlns="http://www.w3.org/2000/svg" xmlns:xlink="http://www.w3.org/1999/xlink" x="0px" y="0px"
	 viewBox="0 0 50 52" style="enable-background:new 0 0 50 52;" xml:space="preserve" width="66px">
<style type="text/css">
	.st0{fill:#D5B98B;}
</style>
<g id="_x30_23---Moisturising-Face">
	<path id="Shape" class="st0" d="M7.9,35.9l-2.1-5c-0.7-1.5-2.4-2.2-3.9-1.5s-2.2,2.4-1.5,3.9c4,8.7,4.1,9.6,5.9,11.4l7,7
		c0.2,0.2,0.4,0.3,0.6,0.3h9.4c0.5,0,0.9-0.4,0.9-0.9c0.1-1.8,0-3.5-0.3-5.3c0.8,0.1,1.5,0.1,2.3,0c-0.4,1.6-0.3,2.6-0.3,5.3
		c0,0.5,0.4,0.9,0.9,0.9H36c0.2,0,0.5-0.1,0.6-0.3l7-7c1.8-1.8,1.9-2.6,5.9-11.4c0.4-1,0.3-2.1-0.3-3s-1.7-1.3-2.7-1.2
		c-1.1,0.1-2,0.8-2.4,1.8l-2.1,5c-1-0.7-2.3-0.9-3.4-0.7c0.4-1,0.7-2,1-3c1.7-0.3,5.9-1.9,5.9-8.4c0-2.2-0.4-4.9-2.6-5.3
		c3.1-4.8,4.4-10.6,3.5-16.3L46,0.7C45.9,0.3,45.5,0,45.1,0H4.7C4.3,0,3.9,0.3,3.8,0.7L3.5,2.3C2.6,8,3.9,13.8,7,18.6
		c-2.2,0.3-2.6,3.1-2.6,5.3c0,6.6,4.2,8.1,5.9,8.4c0.3,1,0.6,2,1,3C10.2,35,8.9,35.2,7.9,35.9L7.9,35.9z M22.3,50.2h-8.2l-6.8-6.8
		C6,42.1,6,41.7,1.8,32.6c-0.2-0.4-0.1-0.9,0.1-1.2c0.3-0.4,0.7-0.6,1.2-0.5c0.5,0.1,0.8,0.3,1,0.7c3.5,8.2,2.1,6.2,9,13.1
		c0.2,0.2,0.5,0.3,0.8,0.2c0.3-0.1,0.5-0.3,0.6-0.6c0.1-0.3,0-0.6-0.2-0.8c-4.7-4.7-5-4.9-5.7-6c1-0.8,2.4-0.8,3.3,0
		c1.8,1.7,3.9,3,6.2,3.9c2,0.7,4.1,3.3,4.1,7L22.3,50.2L22.3,50.2z M23.1,44c-0.8-2-2.4-3.5-4.4-4.3c-1.7-0.7-3.3-1.6-4.7-2.8
		c-3-5.3-3.4-11.6-3.4-17.7c1.8-3.2,6.6-10.7,14.2-15.3C32.4,8.5,37.3,16,39.1,19.2c0,6.2-0.4,12.2-3.3,17.6c-1.4,1.2-3,2.2-4.7,2.9
		c-2,0.8-3.6,2.3-4.4,4.3C25.5,44.2,24.3,44.2,23.1,44L23.1,44z M41.1,37.5c-0.7,1.1-0.9,1.2-5.7,6c-0.3,0.3-0.3,0.9,0,1.2
		c0.3,0.3,0.9,0.3,1.2,0c6.8-6.8,5.5-4.9,9-13.1c0.2-0.4,0.6-0.7,1-0.7c0.5-0.1,0.9,0.1,1.2,0.5c0.3,0.4,0.3,0.8,0.1,1.2
		c-4.1,9-4.1,9.4-5.5,10.9l-6.8,6.8h-8.2v-1.9c0-1.9,0.6-3.7,1.7-5.2c2-2.5,2.7-0.7,8.5-5.7C38.7,36.7,40.1,36.7,41.1,37.5
		L41.1,37.5z M43.7,23.8c0,4.4-2.1,5.9-3.7,6.5c0.6-3.1,0.9-6.2,0.9-9.4c0.8-0.6,1.5-0.8,1.9-0.6C43,20.4,43.7,21,43.7,23.8
		L43.7,23.8z M44.4,1.7c1.2,5.8-0.1,11.8-3.6,16.6c-0.1-6.5-1.8-10.9-5.2-13.5c-0.4-0.3-0.9-0.2-1.2,0.2c-0.3,0.4-0.2,0.9,0.2,1.2
		c2.5,1.9,3.9,5.1,4.4,9.5c-3.5-5.3-8.8-10.9-14.4-13.9L44.4,1.7z M5.4,1.7h11.8c-1.9,1.3-3.7,2.9-5.1,4.7c-0.3,0.4-0.2,0.9,0.1,1.2
		c0.4,0.3,0.9,0.2,1.2-0.1c1.9-2.4,4.4-4.3,7.2-5.7c0.9,0.3,1.7,0.7,2.6,1.2C15.9,7.7,11.3,14.6,9.1,18.5C5.6,13.7,4.2,7.6,5.4,1.7
		L5.4,1.7z M6.2,23.8c0-2.8,0.7-3.4,0.9-3.5c0.4-0.2,1.1,0.1,1.9,0.6c0,3.1,0.3,6.3,0.9,9.4C8.3,29.7,6.2,28.2,6.2,23.8z"/>
	<path id="Shape_1_" class="st0" d="M14.9,18.8c0.9-0.5,1.9-0.5,2.9-0.2l3.4,1.1c0.3,0.1,0.6,0,0.8-0.2c0.2-0.2,0.3-0.5,0.3-0.8
		c-0.1-0.3-0.3-0.6-0.6-0.6L18.3,17c-1.4-0.5-2.9-0.4-4.2,0.3c-0.3,0.1-0.5,0.4-0.5,0.7c0,0.3,0.1,0.6,0.4,0.8
		C14.3,18.9,14.6,19,14.9,18.8L14.9,18.8z"/>
	<path id="Shape_2_" class="st0" d="M28.4,19.8c0.2,0,0,0.1,3.6-1.2c1-0.3,2-0.3,2.9,0.2c0.3,0.1,0.6,0.1,0.9-0.1
		c0.3-0.2,0.4-0.5,0.4-0.8c0-0.3-0.2-0.6-0.5-0.7c-1.3-0.7-2.8-0.8-4.2-0.3l-3.4,1.1c-0.4,0.1-0.6,0.5-0.6,1
		C27.6,19.5,27.9,19.8,28.4,19.8L28.4,19.8z"/>
	<path id="Shape_3_" class="st0" d="M21.4,23.1c-0.2-0.5-0.6-0.7-1.1-0.5c0,0-3,1-5.3-0.7c-0.3-0.3-0.8-0.2-1.1,0.1
		c-0.3,0.3-0.7,0.5-1.1,0.6c-0.5,0-0.9,0.4-0.9,0.9s0.4,0.9,0.9,0.9c0.6,0,1.3-0.3,1.8-0.6c0.1,0.1,0.3,0.1,0.4,0.2
		c-0.1,0.2-0.3,0.3-0.5,0.4c-0.5,0-0.9,0.4-0.9,0.9c0,1.1,1.6,1.5,3-0.7c1.4,0.3,2.8,0.2,4.2-0.2C21.3,24.1,21.5,23.6,21.4,23.1
		L21.4,23.1z"/>
	<path id="Shape_4_" class="st0" d="M34.8,21.8c-2.3,1.7-5.2,0.8-5.3,0.7c-0.5-0.2-0.9,0.1-1.1,0.5c-0.2,0.5,0.1,0.9,0.5,1.1
		c1.4,0.4,2.8,0.5,4.2,0.2c0.4,0.7,1.2,1.6,2.1,1.6c0.5,0,0.9-0.4,0.9-0.9c0-0.2-0.1-0.5-0.2-0.6c-0.2-0.2-0.4-0.3-0.6-0.3
		c-0.2-0.1-0.4-0.3-0.5-0.5c0.1-0.1,0.3-0.1,0.4-0.2c0.5,0.4,1.1,0.6,1.8,0.7c0.5,0,0.9-0.4,0.9-0.9c0-0.5-0.4-0.9-0.9-0.9
		c-0.4-0.1-0.8-0.3-1.1-0.6C35.6,21.6,35.1,21.6,34.8,21.8z"/>
	<path id="Shape_5_" class="st0" d="M21.8,30.2c1.9,1.2,4.3,1.2,6.2,0c0.3-0.2,0.4-0.5,0.4-0.8c0-0.3-0.2-0.6-0.5-0.7
		c-0.3-0.1-0.6-0.1-0.9,0.1c-1.3,0.9-3,0.9-4.2,0c-0.4-0.3-0.9-0.2-1.2,0.2C21.3,29.4,21.4,29.9,21.8,30.2z"/>
	<path id="Shape_6_" class="st0" d="M30.1,35.3c0-0.3-0.1-0.6-0.3-0.8c-0.2-0.2-0.5-0.3-0.8-0.3c-0.7,0-2.8-1.4-4.1-1.4
		c-1.2,0-3.3,1.4-4.1,1.4c-0.3,0-0.6,0.1-0.8,0.3c-0.2,0.2-0.3,0.5-0.3,0.8c0,1.2,2.5,2.8,5.2,2.8S30.1,36.6,30.1,35.3z M24.9,34.6
		c0.9,0.3,1.8,0.6,2.7,1.1c-1.7,0.9-3.7,0.9-5.4,0C23.1,35.3,24,34.9,24.9,34.6z"/>
	<path id="Shape_7_" class="st0" d="M25.8,39.8H24c-0.5,0-0.9,0.4-0.9,0.9c0,0.5,0.4,0.9,0.9,0.9h1.7c0.5,0,0.9-0.4,0.9-0.9
		C26.6,40.2,26.2,39.8,25.8,39.8z"/>
	<circle id="Oval" class="st0" cx="10.2" cy="9.5" r="0.9"/>
</g>
</svg>
