<?xml version="1.0" encoding="utf-8"?>
<!-- Generator: Adobe Illustrator 23.0.5, SVG Export Plug-In . SVG Version: 6.00 Build 0)  -->
<svg version="1.1" id="Слой_1" xmlns="http://www.w3.org/2000/svg" xmlns:xlink="http://www.w3.org/1999/xlink" x="0px" y="0px"
	 viewBox="0 0 51 52" style="enable-background:new 0 0 51 52;" xml:space="preserve" width="66px">
<style type="text/css">
	.st0{fill:#D5B98B;}
</style>
<g>
	<path class="st0" d="M46.6,27.7c-1.1-1.1-2.7-0.2-3.8,0.9l1.2,1.2c0.5-0.5,1.2-0.9,1.4-0.9L46.6,27.7z"/>
	<path class="st0" d="M27.4,32.7L24,31c-0.4-0.2-0.9,0-1.2,0.4l-1.7,3.4l1.5,0.8l0.7-1.5c0.6,1.9,1.5,3.7,2.9,5
		c1.8,1.7,4,2.5,6.2,3.4c0.4,0.2,0.8,0.3,1.2,0.5c2.2,0.9,4.5,1.7,6.8,2.5l0.6-1.6c-2.2-0.8-4.5-1.6-6.7-2.5
		c-0.4-0.2-0.8-0.3-1.3-0.5c-2-0.8-4.1-1.6-5.7-3c-1.2-1.1-2-2.7-2.5-4.4l1.7,0.8L27.4,32.7z"/>
	<path class="st0" d="M49.7,24.7c-0.4-0.4-0.8-0.8-1.3-1.3c-2-2-4.5-4.5-3.5-6.7c0.1-0.3,0.3-0.6,0.5-0.9c0.2-0.4,0.5-0.8,0.7-1.2
		c1.1-2.7-0.8-6.1-2.2-8.6c-0.2-0.4-0.4-0.7-0.6-1c-0.9-1.7-1.8-3.1-2.7-4.5C40.5,0.1,40.2,0,39.9,0c-0.3,0-0.6,0.3-0.7,0.6
		c-0.1,0.2-6.7,18.6-21.7,21.8c-0.4-1.1-1.6-3.5-4.1-3.5c-1.8,0-3.4,1.5-3.9,3.1c-0.1,0.4-0.2,0.7-0.3,1.1c-0.2,1.8,0.6,5.7,2.5,7.7
		c0.6,0.8,3.7,5.2,2.3,10.2c-1.6,5.7-5,10-5,10l1.3,1.1c0.1-0.2,3.6-4.5,5.3-10.6c1.1-3.8-0.1-7.3-1.2-9.5c0.5,0,1-0.1,1.3-0.4
		c1.1-0.8,1.1-2.2,1.1-2.3H15c0,0.1-0.1,0.7-0.4,0.9c-0.3,0.2-0.8,0.1-1.1,0c-0.2-0.1-0.5-0.3-0.7-0.5c0-0.1-0.1-0.1-0.1-0.1l0,0
		c-1.2-1.4-2.1-4.6-1.9-6.2c0-0.2,0.1-0.5,0.2-0.7c0.3-0.9,1.3-1.9,2.3-1.9c1.7,0,2.4,2.2,2.6,2.7v0.1c0,0.3,0.1,0.5,0.3,0.7
		c0.2,0.2,0.4,0.2,0.7,0.2C31,21.8,38.1,7.6,40.1,2.7c0.6,0.9,1.1,1.9,1.7,2.9c0.2,0.3,0.4,0.7,0.6,1c1.2,2.1,3,5.2,2.2,7.1
		c-0.1,0.3-0.3,0.6-0.6,1c-0.2,0.3-0.5,0.7-0.6,1.1c-1.5,3.4,1.6,6.4,3.9,8.7c0.4,0.4,0.8,0.8,1.2,1.2c0.4,0.4,0.6,0.9,0.7,1.4
		c0.1,1.2-0.5,2.2-1.6,2.6c-0.8,0.3-1.4,1-1.5,1.9l-0.9,2.9c0,0,0,0,0,0l-3.7,1.5c-0.3,0.1-0.5,0.4-0.5,0.7c0,0.3,0.1,0.6,0.4,0.8
		l3.6,2.4c-0.4,0.8-0.6,1.6-0.5,2.5c0,0.1,0,0.2,0.1,0.2c0.5,1.2,0.6,1.4,0.6,1.4c0.5,1.2,0.2,2.7-0.7,3.6c-1.3,1.2-3.5,0.9-5.7,0.4
		c-5.7-1.4-15.8-4.8-19.6-11.6l-1.5,0.8c2.2,3.9,6.2,6.7,10.3,8.7l-1.5,5.2l1.7,0.5l1.4-5c3.2,1.4,6.4,2.3,8.8,2.9
		c0.8,0.2,2.1,0.5,3.5,0.5c1.3,0,2.7-0.3,3.8-1.3c1.4-1.3,1.9-3.6,1.1-5.5L46,42.2c0-0.5,0.1-1.1,0.4-1.5l0.7-1
		c0.4-0.7,0.4-1.6-0.2-2l0.4-0.7c0.3-0.6,0.2-1.4-0.3-1.9l-0.2-0.1l0.9-2.8c0-0.1,0-0.2,0-0.3c0-0.2,0.1-0.3,0.3-0.4
		c1.9-0.6,3-2.4,2.8-4.4C50.7,26.2,50.3,25.4,49.7,24.7L49.7,24.7z M45.4,36.9c-0.2,0.5-0.2,1,0,1.4l-1.8-1.2l2.2-0.9L45.4,36.9z"/>
	<path class="st0" d="M15,1.7l-0.7-1.6C13.8,0.3,1.9,5.5,0.1,16.2c-0.4,2.4,0.8,6.9,2.1,11.7c1,3.6,2,7.3,2.2,9.9
		C5.2,46.9,2.8,51,2.8,51l1.5,0.9c0.1-0.2,2.7-4.5,1.8-14.3c-0.2-2.8-1.3-6.5-2.2-10.2c-1.2-4.4-2.4-9-2.1-11
		C3.4,6.7,14.9,1.7,15,1.7L15,1.7z"/>
	<path class="st0" d="M24.6,13.9l0.9,1.5c7.3-4.5,6.5-12.5,6.4-12.8l-1.7,0.2C30.2,2.7,30.9,9.9,24.6,13.9L24.6,13.9z"/>
	<path class="st0" d="M20.3,9.5l0.8,1.5c5.6-2.8,4.8-10,4.8-10.3L24.1,1C24.2,1,24.9,7.3,20.3,9.5z"/>
	<path class="st0" d="M14.5,11.2l3.4-0.9l0.4,1.7l-3.4,0.9L14.5,11.2z"/>
</g>
</svg>
