<?xml version="1.0" encoding="utf-8"?>
<!-- Generator: Adobe Illustrator 25.0.0, SVG Export Plug-In . SVG Version: 6.00 Build 0)  -->
<svg version="1.1" id="Capa_1" xmlns="http://www.w3.org/2000/svg" xmlns:xlink="http://www.w3.org/1999/xlink" x="0px" y="0px"
	 viewBox="0 0 490 490" style="enable-background:new 0 0 490 490;" xml:space="preserve" width="66px">
<style type="text/css">
	.st0{fill:#D5B98B;}
</style>
<g>
	<g>
		<path class="st0" d="M230.9,237.2c1.8-2.6,1.2-6.3-1.5-8.1c-2.6-1.8-6.3-1.2-8.1,1.5c-2.2,3.2-6.3,5.1-10.1,4.7
			c-3.1-0.3-6.2-2.2-8-4.8c-1.8-2.6-5.5-3.3-8.1-1.5c-2.6,1.8-3.3,5.4-1.5,8.1c3.8,5.5,9.9,9.1,16.4,9.8
			C218.1,247.7,226.3,243.9,230.9,237.2L230.9,237.2z"/>
		<path class="st0" d="M265.7,290c-2.6-1.8-6.3-1.2-8.1,1.5c-2.4,3.5-6.4,5.8-10.4,6.2c-5,0.5-10.3-1.9-13.1-6.1
			c-1.8-2.6-5.4-3.3-8.1-1.5c-2.6,1.8-3.3,5.4-1.5,8.1c2.4,3.5,5.6,6.3,9.4,8.2c4.8,2.5,9.2,3.4,14.5,2.8
			c7.4-0.7,14.5-4.9,18.8-11.2C269,295.4,268.3,291.8,265.7,290L265.7,290z"/>
		<path class="st0" d="M438,360.7c-2.2-2.3-5.9-2.4-8.2-0.2l-5.7,5.4L397.6,338l8.1-7.7c2.1-2,3.3-4.7,3.4-7.6c0.1-2.9-1-5.7-3-7.8
			l-7.5-7.9c-2-2.1-4.7-3.3-7.6-3.4c-2.9-0.1-5.7,1-7.8,3l-0.5,0.5l-11.3-12c-2.2-2.3-5.9-2.4-8.2-0.2c-2.3,2.2-2.4,5.9-0.2,8.2
			l11.3,12l-22.1,21l-46-48.5l22.1-21l16.4,17.3c2.2,2.3,5.9,2.4,8.2,0.2c2.3-2.2,2.4-5.9,0.2-8.2l-10.9-11.5
			c0.7-4.1,1.1-8.3,1.3-12.5c0.1-1.7,0.2-3.8,0.2-6.1l7.2-12.1c3.1-5.1,5.8-10.4,8-15.5c13.2-30.1,2.7-67.4-13.6-91
			c-13.2-19.1-31.6-32.9-54.1-40.7c0.7-11-1.9-20.2-7.7-27.5c-12.6-15.8-35.8-15.9-37.8-15.9c-2,0-25.2,0.1-37.8,15.9
			c-5.6,7-8.2,15.9-7.8,26.4c-2.9,1-5.6,2.1-8.3,3.4c-16.9,7.5-43.2,24.4-57.7,59.6c0,0,0,0.1,0,0.1c-4.2,10.6-6.8,22.9-7.4,34.5
			c-0.7,13.3,1.1,25.5,5.4,35.2c2.3,5.2,5,10.4,8.1,15.5l7.7,12.8c0,1.9,0.1,3.7,0.2,5.4c1.5,29.4,13.8,57,37.6,84.2
			c5.2,5.9,11.3,11.7,18.3,17.3l1.3,13.9c0,0.1,0,0.2,0,0.3c0.9,6.6-3.2,12.8-9.6,14.6l-61.7,17.3c-15.9,4.5-26.9,19.1-26.9,35.6
			c0,3.2,2.6,5.8,5.8,5.8h265.7c3.2,0,5.8-2.6,5.8-5.8c0-16.5-11.1-31.1-26.9-35.6l-61.7-17.3c-6.4-1.8-10.5-8.1-9.6-14.6
			c0-0.1,0-0.2,0-0.3l1.3-13.9c7-5.6,13.1-11.3,18.3-17.3c5.1-5.8,9.6-11.6,13.6-17.5l24.1,25.4l-0.5,0.5c-2.1,2-3.3,4.7-3.4,7.6
			c-0.1,2.9,1,5.7,3,7.8l7.5,7.9c2,2.1,4.7,3.3,7.6,3.4c0.1,0,0.2,0,0.3,0c2.8,0,5.4-1.1,7.5-3l8.1-7.7l26.5,27.9l-5.7,5.4
			c-2.3,2.2-2.4,5.9-0.2,8.2c1.1,1.2,2.7,1.8,4.2,1.8c1.4,0,2.9-0.5,4-1.6l35.3-33.5C440.1,366.8,440.2,363.1,438,360.7L438,360.7z
			 M298.1,279.2l-16.7-17.6l22.1-21l16.7,17.6L298.1,279.2z M279.5,247.3l-8.4-8.9c-0.5-0.5-0.5-1.3,0-1.8l8-7.6
			c0.2-0.2,0.6-0.3,0.9-0.3c0.3,0,0.7,0.1,0.9,0.4l8.4,8.9L279.5,247.3z M217.1,66.4c9.1-11.4,27.4-11.6,28.6-11.6h0.1
			c0.1,0,0.1,0,0.2,0c0.2,0,19.3,0,28.6,11.5c3.5,4.4,5.2,10,5.3,16.8c-5.9-1.5-12.1-2.5-18.6-3.2c-8.1-0.9-16-1.2-23.6-0.9
			c-9,0.3-17.6,1.4-25.8,3.2C212,75.9,213.8,70.6,217.1,66.4z M204,96.5c10.1-3.4,20.6-5.2,31.2-5.8c38.2-2,78.1,10.5,100.6,43.2
			c20,29.1,20.7,61,12.5,79.7c-2.2,5.1-4.9,10.1-7.7,14.8c-4.8-18.5-13.9-36.1-27-52.3c-14.7-18.1-34.6-34.4-57.7-47.3
			c-21.1-11.8-45.3-18.6-70-19.8c-1.6-0.1-3.1-0.1-4.6-0.2C188.7,103.8,195.9,99.2,204,96.5L204,96.5z M292.7,393.5l61.7,17.3
			c8.9,2.5,15.7,9.7,17.8,18.5H119.5c2.1-8.8,8.8-16,17.8-18.5l61.7-17.3c11.9-3.3,19.6-15.1,18-27.3l-0.4-4
			c9.1,5,19.2,7.6,29.3,7.6c10.1,0,20.2-2.5,29.3-7.6l-0.4,4C273.1,378.5,280.8,390.2,292.7,393.5L292.7,393.5z M297.1,328.6
			c-6,6.9-13.5,13.6-22.2,20c-17.4,12.7-40.8,12.7-58.2,0c-8.7-6.4-16.2-13.1-22.2-20c-22-25.2-33.4-50.5-34.8-77.2
			c-0.1-2.5-0.2-5.3-0.2-8.2c3.9-26.3,16.4-51.8,35.2-71.8c2.2-2.3,2.1-6-0.3-8.2c-2.3-2.2-6-2.1-8.2,0.3
			c-17.3,18.4-29.6,41.1-35.6,65l-0.3-0.6c-2.8-4.7-5.3-9.5-7.4-14.2c-7.8-17.9-4.5-43.4,2.2-60.7c4.9-12,11.8-22.5,20.4-31.5
			c2-0.6,7.1-1.3,19.8-0.7c16.3,0.8,32.3,4.2,47.3,10.1c-8.7,3.7-17.2,8.4-25.2,14.1c-2.6,1.9-3.2,5.5-1.4,8.1s5.5,3.2,8.1,1.4
			c10.5-7.5,21.8-13.1,33.5-16.7c0.8,0.4,1.7,0.9,2.5,1.4c63.7,35.5,78.6,81.8,81.9,106.2c0.1,1.1,0.1,2.2,0.1,3.3
			c-0.1,1.6-0.2,3.2-0.4,4.8c-4.1-4.3-20.2-21.3-20.2-21.3c-3.6-3.8-9.2-4.4-13.5-1.9l-8.6-9.1c-4.8-5.1-12.8-5.4-18-0.7l-23.1-24.3
			c-2.2-2.3-5.9-2.4-8.2-0.2c-2.3,2.2-2.4,5.9-0.2,8.2l23.1,24.3c-4.9,4.9-5.1,12.9-0.3,18l8.6,9.1c-1.1,1.7-1.8,3.7-1.8,5.7
			c-0.1,2.9,1,5.7,3,7.8l38.9,41C307,316.6,302.3,322.7,297.1,328.6z M358.1,359.4l-6.5-6.8l39-37l6.5,6.8L358.1,359.4z
			 M408.6,380.6l-26.5-27.9l7-6.6l26.5,27.9L408.6,380.6z"/>
	</g>
</g>
</svg>
