<?xml version="1.0" encoding="utf-8"?>
<!-- Generator: Adobe Illustrator 25.0.0, SVG Export Plug-In . SVG Version: 6.00 Build 0)  -->
<svg version="1.1" id="Capa_1" xmlns="http://www.w3.org/2000/svg" xmlns:xlink="http://www.w3.org/1999/xlink" x="0px" y="0px"
	 viewBox="0 0 490 490" style="enable-background:new 0 0 490 490;" xml:space="preserve" width="59px">
<style type="text/css">
	.st0{fill:#D5B98B;}
</style>
<g>
	<path class="st0" d="M377.9,233.9c-2.8-3-6.1-6.3-9.6-9.8c-15.3-15.2-34.3-34-26.5-51.4c1-2.3,2.4-4.5,4-6.9
		c1.9-2.9,3.8-5.9,5.2-9.4c8.6-20.6-6.3-46.7-17.1-65.8c-1.5-2.7-3-5.2-4.2-7.6c-6.8-12.7-13.5-23.8-20.3-34.1
		c-1.2-1.8-3.1-2.8-5.3-2.9c-0.1,0-0.1,0-0.2,0v0H127.6c-3.6,0-6.5,2.9-6.5,6.5v378.8c0,3.6,2.9,6.5,6.5,6.5h84.9
		c3.1,0,5.8-2.2,6.4-5.3l5-24.9c15.8,4.8,31.9,8.6,46.9,12.1c6.5,1.5,12.8,3,18.8,4.5c6.4,1.6,16.3,4,26.6,4
		c10.1,0,20.7-2.4,28.9-10.2c10.6-10.1,14.1-27.5,8.6-41.1c0,0-2.9-7.2-4-9.9c-0.2-4.1,0.9-8.3,3.2-11.7l5.2-7.8
		c3.4-5,2.7-11.8-1.5-15.2l2.7-5.3c2.4-4.8,1.5-10.6-2.4-14.4l-1.3-1.1l6.8-21.5c0.2-0.6,0.3-1.3,0.3-2c0-1.4,0.9-2.6,2.2-3
		c14.2-4.7,23-18.6,21.3-33.6C385.5,245.2,382.7,239.1,377.9,233.9L377.9,233.9z M134.2,59.2H291c-50.4,67-125,157.5-156.8,175.4
		V59.2z M207.2,425h-73v-75c16.6,27.2,45.7,43.1,77.2,53.9L207.2,425z M345,326.7c-1.7,3.5-1.7,7.5-0.1,10.9l-13.9-9.2l16.4-6.6
		L345,326.7z M360.8,272.9c-6.3,2.1-10.6,7.7-11,14.3l-7,22.4c0,0.1,0,0.2,0,0.2l-28,11.2c-2.3,0.9-3.8,3-4.1,5.4
		c-0.2,2.4,0.9,4.8,2.9,6.1l27.4,18.2c-3.2,5.7-4.7,12.3-4,18.8c0.1,0.6,0.2,1.2,0.5,1.8l4.2,10.4c3.7,9.1,1.4,20.7-5.4,27.1
		c-10,9.5-26.7,7-43.3,2.9c-6-1.5-12.4-3-18.9-4.5c-50.5-11.8-113.3-26.4-133.7-73.8c-1.9-4.4-4.9-11.8-6-15.6v-69
		c41.5-17.1,142.1-148.4,169.4-184.7c4.9,7.7,9.7,16.1,14.6,25.2c1.3,2.4,2.8,5,4.4,7.8c9,15.8,22.5,39.7,16.4,54.3
		c-1,2.4-2.6,4.8-4.2,7.4c-1.7,2.7-3.5,5.4-4.9,8.6c-11.4,25.6,12.1,48.9,29.2,66c3.3,3.3,6.5,6.4,9.1,9.3c2.8,3.1,4.6,6.8,5,10.4
		C374.3,262,369.1,270.1,360.8,272.9L360.8,272.9z"/>
	<path class="st0" d="M325.5,263.6l9.2,9.2c3.4-3.4,8.8-6.7,10.4-6.5l9.2-9.2C346.1,248.8,333.7,255.4,325.5,263.6z"/>
</g>
</svg>
