<?xml version="1.0" encoding="utf-8"?>
<!-- Generator: Adobe Illustrator 25.0.0, SVG Export Plug-In . SVG Version: 6.00 Build 0)  -->
<svg version="1.1" id="Capa_1" xmlns="http://www.w3.org/2000/svg" xmlns:xlink="http://www.w3.org/1999/xlink" x="0px" y="0px"
	 viewBox="0 0 490 490" style="enable-background:new 0 0 490 490;" xml:space="preserve" width="65px">
<style type="text/css">
	.st0{fill:#D5B98B;}
</style>
<g id="_x30_23---Moisturising-Face">
	<path id="Shape" class="st0" d="M116.6,317l-16.2-37.7c-5-11.4-18.3-16.5-29.7-11.5s-16.5,18.3-11.5,29.7
		c29.8,65.5,31.2,72.6,44.4,85.8l52.9,52.9c1.2,1.2,2.9,1.9,4.6,1.9h70.8c3.6,0,6.5-2.9,6.5-6.5c0.9-13.2,0.2-26.5-2.2-39.6
		c5.8,0.5,11.6,0.5,17.4,0c-2.8,12-2.2,19.3-2.2,39.6c0,3.6,2.9,6.5,6.5,6.5h70.8c1.7,0,3.4-0.7,4.6-1.9l52.9-52.9
		c13.2-13.2,14.2-19.4,44.4-85.8c3.3-7.4,2.3-15.9-2.4-22.4s-12.6-10-20.6-9.1c-8,0.9-14.9,5.9-18.2,13.3L373.4,317
		c-7.6-5.2-17-7.1-26-5.1c3-7.4,5.6-15,7.7-22.7c13-2.6,44.4-14,44.4-63.4c0-16.7-2.9-37.3-19.5-39.6c23.5-36.4,32.9-80.1,26.4-123
		l-2.6-11.9c-0.7-3-3.3-5.1-6.4-5.1H92.7c-3.1,0-5.7,2.1-6.4,5.1l-2.7,12.4c-6.4,42.7,3.1,86.3,26.5,122.5
		c-16.5,2.5-19.3,23-19.3,39.6c0,49.4,31.4,60.7,44.4,63.4c2.1,7.7,4.7,15.4,7.7,22.8C133.8,309.8,124.3,311.7,116.6,317L116.6,317z
		 M225.4,425h-61.6l-50.9-51c-10.7-10.6-10.7-13.5-41.8-81.9c-1.4-3.1-1-6.7,1-9.4c2-2.7,5.3-4.2,8.7-3.8c3.4,0.4,6.3,2.5,7.7,5.6
		c26.5,61.8,16.2,46.7,68.1,98.6c1.6,1.7,4.1,2.4,6.4,1.8c2.3-0.6,4.1-2.4,4.7-4.7c0.6-2.3-0.1-4.7-1.8-6.4
		c-35.8-35.8-37.5-36.8-42.9-45.1c7.3-6.1,17.9-6.1,25.2,0c13.6,12.5,29.3,22.4,46.4,29.4c15.3,5.1,31,24.9,31,52.6V425z
		 M231.6,378.1c-6.1-14.9-18-26.7-33.1-32.5c-12.8-5.2-24.7-12.4-35.3-21.4c-22.4-39.8-25.3-87.7-25.4-133.4
		c13.8-24.4,50.1-80.6,107-115c57,34.6,93.4,90.9,107.3,115.4c-0.1,46.4-2.9,92.1-25,132.5c-10.7,9.2-22.8,16.6-35.8,21.9
		c-15,5.8-27,17.6-33.1,32.5C249.5,379.5,240.5,379.5,231.6,378.1L231.6,378.1z M367.2,328.6c-5.4,8.3-7,9.2-42.9,45.1
		c-2.5,2.6-2.4,6.6,0.1,9.2c2.5,2.5,6.6,2.6,9.2,0.1c51.4-51.4,41.6-36.8,68.1-98.6c1.4-3.1,4.3-5.2,7.7-5.6s6.7,1.1,8.7,3.8
		c2,2.7,2.4,6.3,1,9.4c-30.7,67.5-30.8,71-41.7,81.9l-51,51h-61.6v-14.4c-0.2-14.2,4.4-28,13-39.3c15.3-19.2,20.2-5.5,64.4-42.7
		C349.3,322.6,359.9,322.6,367.2,328.6L367.2,328.6z M386.4,225.8c0,32.9-15.9,44.7-27.8,48.9c4.4-23.3,6.6-46.9,6.6-70.5
		c6-4.3,11.4-6.1,14.4-4.6C381.1,200.2,386.4,204.4,386.4,225.8L386.4,225.8z M392.1,59.2c8.7,43.7-1,88.9-26.8,125.3
		c-0.6-48.8-13.5-82.2-39.4-102c-2.9-2.2-7-1.6-9.2,1.2c-2.2,2.9-1.6,7,1.2,9.2c18.9,14.4,29.7,38.1,33.1,71.5
		c-26.2-39.8-66.6-82.1-108.9-105.1L392.1,59.2z M97.9,59.2H187c-14.6,9.7-27.6,21.5-38.5,35.1c-2.3,2.8-1.8,6.9,1,9.2
		c2.8,2.3,6.9,1.8,9.2-1c14.6-18,33-32.6,53.9-42.7c6.6,2.6,13.1,5.6,19.5,8.8c-54.8,35.3-89.8,88-106.3,117.3
		C99.2,149.4,89.1,103.5,97.9,59.2L97.9,59.2z M103.8,225.8c0-21.4,5.2-25.6,6.9-26.3c2.9-1.4,8.4,0.4,14.4,4.6
		c0,23.7,2.2,47.3,6.6,70.6C119.8,270.4,103.8,258.7,103.8,225.8z"/>
	<path id="Shape_1_" class="st0" d="M169.5,188.1c6.8-3.4,14.7-4,21.9-1.6l25.3,8.4c2.2,0.7,4.7,0.2,6.4-1.3
		c1.7-1.6,2.5-3.9,2.1-6.2c-0.5-2.3-2.1-4.2-4.3-4.9l-25.3-8.4c-10.5-3.5-22-2.7-31.9,2.3c-2.1,1-3.5,3.1-3.6,5.5
		c-0.1,2.3,1,4.6,2.9,5.9C164.9,189,167.4,189.2,169.5,188.1L169.5,188.1z"/>
	<path id="Shape_2_" class="st0" d="M271.1,195.3c1.5,0,0,0.4,27.4-8.8c7.2-2.4,15.1-1.9,21.9,1.6c2.1,1.1,4.6,0.9,6.6-0.4
		c2-1.3,3.1-3.5,2.9-5.9s-1.5-4.4-3.6-5.5c-9.9-5-21.4-5.8-31.9-2.3l-25.3,8.4c-3,1-4.9,4.1-4.4,7.2
		C265.2,193,267.9,195.3,271.1,195.3L271.1,195.3z"/>
	<path id="Shape_3_" class="st0" d="M218.5,220.4c-1.2-3.4-4.9-5.2-8.3-4.1c-0.2,0.1-22.5,7.3-39.7-5.6c-2.6-1.9-6.2-1.7-8.5,0.6
		c-2.3,2.4-5.3,4-8.5,4.6c-3.6,0-6.5,2.9-6.5,6.5s2.9,6.5,6.5,6.5c4.9-0.3,9.6-2,13.4-4.9c1,0.6,2,1.1,3,1.6c-0.9,1.3-2,2.5-3.4,3.3
		c-3.6,0-6.5,2.9-6.5,6.5c0,8,12.1,11.1,22.7-5.3c10.5,2.1,21.4,1.6,31.7-1.5C217.8,227.5,219.7,223.8,218.5,220.4L218.5,220.4z"/>
	<path id="Shape_4_" class="st0" d="M319.5,210.7c-17.1,12.8-39.2,5.7-39.7,5.6c-3.4-1.2-7.1,0.7-8.3,4.1c-1.2,3.4,0.7,7.1,4.1,8.3
		c10.3,3.2,21.2,3.7,31.7,1.5c3.3,5.2,9,11.9,16.2,11.9c3.6,0,6.6-2.9,6.7-6.5c0-1.7-0.6-3.4-1.8-4.6s-2.9-1.9-4.6-1.9
		c-1.4-0.8-2.7-2-3.6-3.4c1-0.5,2-1,2.9-1.6c3.9,3,8.6,4.7,13.4,5c3.6,0,6.5-2.9,6.5-6.5s-2.9-6.5-6.5-6.5c-3.2-0.6-6.2-2.3-8.4-4.6
		C325.7,209,322.1,208.8,319.5,210.7z"/>
	<path id="Shape_5_" class="st0" d="M221.8,273.7c14.1,9.4,32.4,9.4,46.4,0c1.9-1.3,3-3.5,2.9-5.9c-0.2-2.3-1.5-4.4-3.6-5.4
		c-2.1-1-4.6-0.9-6.5,0.4c-9.7,6.5-22.3,6.5-31.9,0c-3-2-7.1-1.2-9.1,1.8C218,267.6,218.8,271.6,221.8,273.7z"/>
	<path id="Shape_6_" class="st0" d="M284.2,312.6c0-2.2-0.9-4.3-2.6-5.8c-1.6-1.5-3.8-2.2-5.9-2.1c-5.4,0-21.4-10.5-30.7-10.5
		c-9.4,0-25.2,10.5-30.7,10.5c-2.2-0.2-4.3,0.6-6,2.1s-2.5,3.6-2.6,5.8c0,9.2,18.5,20.9,39.2,20.9S284.2,321.8,284.2,312.6z
		 M245,307.4c7,2.1,13.9,4.7,20.4,8c-12.8,6.7-28,6.7-40.8,0C231.1,312.1,238,309.5,245,307.4z"/>
	<path id="Shape_7_" class="st0" d="M251.5,346.6h-13.1c-3.6,0-6.5,2.9-6.5,6.5s2.9,6.5,6.5,6.5h13.1c3.6,0,6.5-2.9,6.5-6.5
		S255.1,346.6,251.5,346.6z"/>
	<circle id="Oval" class="st0" cx="134" cy="118" r="6.5"/>
</g>
</svg>
