<?xml version="1.0" encoding="utf-8"?>
<!-- Generator: Adobe Illustrator 23.0.1, SVG Export Plug-In . SVG Version: 6.00 Build 0)  -->
<svg version="1.1" id="Слой_1" xmlns="http://www.w3.org/2000/svg" xmlns:xlink="http://www.w3.org/1999/xlink" x="0px" y="0px"
	 viewBox="0 0 45 54" style="enable-background:new 0 0 45 54;" xml:space="preserve" width="66px">
<style type="text/css">
	.st0{fill:#D5B98B;}
</style>
<g>
	<g>
		<path class="st0" d="M16.7,26.1c0.2-0.4,0.2-0.8-0.2-1.1c-0.4-0.2-0.8-0.2-1.1,0.2c-0.3,0.4-0.8,0.7-1.4,0.6
			c-0.4,0-0.8-0.3-1.1-0.6s-0.7-0.4-1.1-0.2c-0.4,0.2-0.4,0.7-0.2,1.1c0.5,0.7,1.3,1.2,2.2,1.3C15,27.6,16.1,27,16.7,26.1L16.7,26.1
			z"/>
		<path class="st0" d="M21.4,33.3c-0.4-0.2-0.8-0.2-1.1,0.2c-0.3,0.5-0.9,0.8-1.4,0.8c-0.7,0.1-1.4-0.3-1.8-0.8
			c-0.2-0.4-0.7-0.4-1.1-0.2c-0.4,0.2-0.4,0.7-0.2,1.1c0.3,0.5,0.8,0.8,1.3,1.1c0.6,0.3,1.2,0.5,2,0.4c1-0.1,2-0.7,2.5-1.5
			C21.8,34,21.7,33.5,21.4,33.3L21.4,33.3z"/>
		<path class="st0" d="M44.6,42.8c-0.3-0.3-0.8-0.3-1.1,0l-0.8,0.7l-3.6-3.8l1.1-1c0.3-0.3,0.4-0.6,0.5-1c0-0.4-0.1-0.8-0.4-1.1
			l-1-1.1c-0.3-0.3-0.6-0.4-1-0.5s-0.8,0.1-1.1,0.4l-0.1,0.1l-1.5-1.6c-0.3-0.3-0.8-0.3-1.1,0c-0.3,0.3-0.3,0.8,0,1.1l1.5,1.6
			l-3,2.8l-6.2-6.5l3-2.8l2.2,2.3c0.3,0.3,0.8,0.3,1.1,0c0.3-0.3,0.3-0.8,0-1.1l-1.5-1.5c0.1-0.6,0.1-1.1,0.2-1.7c0-0.2,0-0.5,0-0.8
			l1-1.6c0.4-0.7,0.8-1.4,1.1-2.1c1.8-4.1,0.4-9.1-1.8-12.3c-1.8-2.6-4.3-4.4-7.3-5.5c0.1-1.5-0.3-2.7-1-3.7C22.1,0,18.9,0,18.7,0
			s-3.4,0-5.1,2.1c-0.8,0.9-1.1,2.1-1.1,3.6c-0.4,0.1-0.8,0.3-1.1,0.5c-2.3,1-5.8,3.3-7.8,8v0c-0.6,1.4-0.9,3.1-1,4.6
			c-0.1,1.8,0.1,3.4,0.7,4.7C3.7,24.3,4,25,4.5,25.7l1,1.7c0,0.3,0,0.5,0,0.7c0.2,4,1.9,7.7,5.1,11.3c0.7,0.8,1.5,1.6,2.5,2.3
			l0.2,1.9c0,0,0,0,0,0c0.1,0.9-0.4,1.7-1.3,2L3.6,48C1.5,48.6,0,50.6,0,52.8c0,0.4,0.4,0.8,0.8,0.8h35.8c0.4,0,0.8-0.4,0.8-0.8
			c0-2.2-1.5-4.2-3.6-4.8l-8.3-2.3c-0.9-0.2-1.4-1.1-1.3-2c0,0,0,0,0,0l0.2-1.9c0.9-0.8,1.8-1.5,2.5-2.3c0.7-0.8,1.3-1.6,1.8-2.4
			l3.2,3.4l-0.1,0.1c-0.3,0.3-0.4,0.6-0.5,1c0,0.4,0.1,0.8,0.4,1.1l1,1.1c0.3,0.3,0.6,0.4,1,0.5c0,0,0,0,0,0c0.4,0,0.7-0.1,1-0.4
			l1.1-1l3.6,3.8l-0.8,0.7c-0.3,0.3-0.3,0.8,0,1.1c0.1,0.2,0.4,0.2,0.6,0.2c0.2,0,0.4-0.1,0.5-0.2l4.8-4.5
			C44.9,43.6,44.9,43.1,44.6,42.8L44.6,42.8z M25.7,31.8l-2.2-2.4l3-2.8l2.2,2.4L25.7,31.8z M23.2,27.5l-1.1-1.2
			c-0.1-0.1-0.1-0.2,0-0.2l1.1-1c0,0,0.1,0,0.1,0c0,0,0.1,0,0.1,0.1l1.1,1.2L23.2,27.5z M14.8,3.1c1.2-1.5,3.7-1.6,3.9-1.6h0
			c0,0,0,0,0,0c0,0,2.6,0,3.9,1.5c0.5,0.6,0.7,1.3,0.7,2.3c-0.8-0.2-1.6-0.3-2.5-0.4c-1.1-0.1-2.2-0.2-3.2-0.1
			c-1.2,0-2.4,0.2-3.5,0.4C14.1,4.4,14.4,3.7,14.8,3.1z M13.1,7.2c1.4-0.5,2.8-0.7,4.2-0.8c5.1-0.3,10.5,1.4,13.6,5.8
			c2.7,3.9,2.8,8.2,1.7,10.7c-0.3,0.7-0.7,1.4-1,2c-0.6-2.5-1.9-4.9-3.6-7c-2-2.4-4.7-4.6-7.8-6.4C17.2,10,13.9,9,10.6,8.9
			c-0.2,0-0.4,0-0.6,0C11,8.2,12,7.6,13.1,7.2L13.1,7.2z M25,47.2l8.3,2.3c1.2,0.3,2.1,1.3,2.4,2.5h-34c0.3-1.2,1.2-2.2,2.4-2.5
			l8.3-2.3c1.6-0.4,2.6-2,2.4-3.7L14.7,43c1.2,0.7,2.6,1,3.9,1c1.4,0,2.7-0.3,3.9-1l-0.1,0.5C22.4,45.2,23.4,46.8,25,47.2L25,47.2z
			 M25.6,38.5c-0.8,0.9-1.8,1.8-3,2.7c-2.3,1.7-5.5,1.7-7.8,0c-1.2-0.9-2.2-1.8-3-2.7c-3-3.4-4.5-6.8-4.7-10.4c0-0.3,0-0.7,0-1.1
			c0.5-3.5,2.2-7,4.7-9.7c0.3-0.3,0.3-0.8,0-1.1c-0.3-0.3-0.8-0.3-1.1,0c-2.3,2.5-4,5.5-4.8,8.8l0-0.1c-0.4-0.6-0.7-1.3-1-1.9
			c-1.1-2.4-0.6-5.8,0.3-8.2c0.7-1.6,1.6-3,2.7-4.2c0.3-0.1,1-0.2,2.7-0.1c2.2,0.1,4.4,0.6,6.4,1.4c-1.2,0.5-2.3,1.1-3.4,1.9
			c-0.4,0.3-0.4,0.7-0.2,1.1c0.2,0.4,0.7,0.4,1.1,0.2c1.4-1,2.9-1.8,4.5-2.2c0.1,0.1,0.2,0.1,0.3,0.2c8.6,4.8,10.6,11,11,14.3
			c0,0.1,0,0.3,0,0.4c0,0.2,0,0.4-0.1,0.6c-0.6-0.6-2.7-2.9-2.7-2.9c-0.5-0.5-1.2-0.6-1.8-0.3L24.6,24c-0.6-0.7-1.7-0.7-2.4-0.1
			L19,20.6c-0.3-0.3-0.8-0.3-1.1,0c-0.3,0.3-0.3,0.8,0,1.1L21,25c-0.7,0.7-0.7,1.7,0,2.4l1.2,1.2c-0.1,0.2-0.2,0.5-0.2,0.8
			c0,0.4,0.1,0.8,0.4,1.1l5.2,5.5C26.9,36.8,26.3,37.7,25.6,38.5z M33.8,42.6l-0.9-0.9l5.3-5l0.9,0.9L33.8,42.6z M40.6,45.5L37,41.7
			l0.9-0.9l3.6,3.8L40.6,45.5z"/>
	</g>
</g>
</svg>
