<?xml version="1.0" encoding="utf-8"?>
<!-- Generator: Adobe Illustrator 23.0.1, SVG Export Plug-In . SVG Version: 6.00 Build 0)  -->
<svg version="1.1" id="Слой_1" xmlns="http://www.w3.org/2000/svg" xmlns:xlink="http://www.w3.org/1999/xlink" x="0px" y="0px"
	 viewBox="0 0 32 47" style="enable-background:new 0 0 32 47;" xml:space="preserve" width="49px">
<style type="text/css">
	.st0{fill:#D5B98B;}
</style>
<g>
	<path class="st0" d="M30.9,22.6c-0.3-0.4-0.7-0.8-1.2-1.2c-1.8-1.8-4.1-4.1-3.2-6.2c0.1-0.3,0.3-0.5,0.5-0.8
		c0.2-0.3,0.5-0.7,0.6-1.1c1-2.5-0.8-5.6-2.1-7.9c-0.2-0.3-0.4-0.6-0.5-0.9c-0.8-1.5-1.6-2.9-2.4-4.1C22.5,0.2,22.3,0.1,22,0
		c0,0,0,0,0,0l0,0H0.8C0.3,0,0,0.4,0,0.8v45.4C0,46.7,0.3,47,0.8,47H11c0.4,0,0.7-0.3,0.8-0.6l0.6-3c1.9,0.6,3.8,1,5.6,1.5
		c0.8,0.2,1.5,0.4,2.3,0.5c0.8,0.2,2,0.5,3.2,0.5c1.2,0,2.5-0.3,3.5-1.2c1.3-1.2,1.7-3.3,1-4.9c0,0-0.3-0.9-0.5-1.2
		c0-0.5,0.1-1,0.4-1.4l0.6-0.9c0.4-0.6,0.3-1.4-0.2-1.8l0.3-0.6c0.3-0.6,0.2-1.3-0.3-1.7l-0.2-0.1l0.8-2.6c0-0.1,0-0.2,0-0.2
		c0-0.2,0.1-0.3,0.3-0.4c1.7-0.6,2.8-2.2,2.6-4C31.8,23.9,31.5,23.2,30.9,22.6L30.9,22.6z M1.6,1.6h18.9c-6.1,8-15.1,18.9-18.9,21
		V1.6z M10.4,45.5H1.6v-9c2,3.3,5.5,5.2,9.3,6.5L10.4,45.5z M27,33.7c-0.2,0.4-0.2,0.9,0,1.3l-1.7-1.1l2-0.8L27,33.7z M28.9,27.3
		c-0.8,0.3-1.3,0.9-1.3,1.7l-0.8,2.7c0,0,0,0,0,0L23.3,33c-0.3,0.1-0.5,0.4-0.5,0.6c0,0.3,0.1,0.6,0.3,0.7l3.3,2.2
		c-0.4,0.7-0.6,1.5-0.5,2.3c0,0.1,0,0.1,0.1,0.2l0.5,1.2c0.4,1.1,0.2,2.5-0.7,3.3c-1.2,1.1-3.2,0.8-5.2,0.3
		c-0.7-0.2-1.5-0.4-2.3-0.5C12.3,42,4.8,40.2,2.3,34.5c-0.2-0.5-0.6-1.4-0.7-1.9v-8.3C6.6,22.3,18.7,6.6,22,2.2
		c0.6,0.9,1.2,1.9,1.8,3c0.2,0.3,0.3,0.6,0.5,0.9c1.1,1.9,2.7,4.8,2,6.5c-0.1,0.3-0.3,0.6-0.5,0.9c-0.2,0.3-0.4,0.6-0.6,1
		c-1.4,3.1,1.5,5.9,3.5,7.9c0.4,0.4,0.8,0.8,1.1,1.1c0.3,0.4,0.6,0.8,0.6,1.2C30.5,25.9,29.9,26.9,28.9,27.3L28.9,27.3z"/>
	<path class="st0" d="M24.6,26.1l1.1,1.1c0.4-0.4,1.1-0.8,1.3-0.8l1.1-1.1C27.1,24.4,25.6,25.2,24.6,26.1z"/>
</g>
</svg>
