<?xml version="1.0" encoding="utf-8"?>
<!-- Generator: Adobe Illustrator 23.0.5, SVG Export Plug-In . SVG Version: 6.00 Build 0)  -->
<svg version="1.1" id="Слой_1" xmlns="http://www.w3.org/2000/svg" xmlns:xlink="http://www.w3.org/1999/xlink" x="0px" y="0px"
	 viewBox="0 0 1004 180" style="enable-background:new 0 0 1004 180;" xml:space="preserve">
<style type="text/css">
	.st0{fill:#325D57;}
</style>
<g>
	<path d="M302.7,46.5c0-25.1,19.4-45.4,52.4-45.4c20.1,0,38,7.2,47.9,18.1L391.6,35c-9.2-9.2-20.1-14.1-35.3-14.1
		c-19.4,0-31.3,10.2-31.3,25.6c0,43,84.9,26.8,84.9,86.2c0,28.6-25.1,47.2-56.6,47.2c-21.4,0-46.2-9.7-54.9-26.1l12.2-14.4
		c10.2,13.4,28.3,20.6,43,20.6c18.1,0,34-9.4,34-27.1C387.7,90.4,302.7,104.1,302.7,46.5"/>
	<path d="M543.4,159.9c39.7,0,66.3-30.3,66.3-69.5c0-40.5-29-69.5-66.3-69.5c-37.7,0-66.3,29-66.3,69.5
		C477.1,129.9,506.2,159.9,543.4,159.9 M543.4,1C593.8,1,632,37.5,632,90.4c0,51.7-38.2,89.4-88.6,89.4c-50.4,0-88.6-36.5-88.6-89.4
		C454.8,40,491.8,1,543.4,1"/>
	<polygon points="690.9,3.5 712,3.5 712,157.5 797.7,157.5 797.7,177.3 690.9,177.3 	"/>
	<path d="M888.4,104.8h62.5l-31.3-74.2L888.4,104.8z M911.2,2.5h18.1l74.7,174.8h-22.6l-22.3-52.6h-79.2l-22.1,52.6h-21.4L911.2,2.5
		z"/>
</g>
<path class="st0" d="M0,3.5v1.9c58.4,40.1,94.9,99.3,103.5,171.9h4.1c8.6-72.6,45.1-131.8,103.5-171.9V3.5H0z"/>
</svg>
