<?xml version="1.0" encoding="utf-8"?>
<!-- Generator: Adobe Illustrator 25.0.0, SVG Export Plug-In . SVG Version: 6.00 Build 0)  -->
<svg version="1.1" id="Capa_1" xmlns="http://www.w3.org/2000/svg" xmlns:xlink="http://www.w3.org/1999/xlink" x="0px" y="0px"
	 viewBox="0 0 499.4 490" style="enable-background:new 0 0 499.4 490;" xml:space="preserve">
<style type="text/css">
	.st0{fill:#325D57;}
</style>
<path class="st0" d="M41.9,38.3V453h414.6V38.3H41.9z M448.2,444.7H50.1V46.6h398.1V444.7z"/>
<g>
	<path d="M100.7,281.6c0-10.4,8.1-18.9,21.8-18.9c8.4,0,15.8,3,20,7.5l-4.8,6.6c-3.8-3.8-8.4-5.9-14.7-5.9c-8.1,0-13,4.2-13,10.6
		c0,17.9,35.4,11.2,35.4,35.9c0,11.9-10.4,19.6-23.6,19.6c-8.9,0-19.2-4-22.9-10.9l5.1-6c4.2,5.6,11.8,8.6,17.9,8.6
		c7.5,0,14.2-3.9,14.2-11.3C136,299.9,100.7,305.6,100.7,281.6z"/>
	<path d="M200.9,262.7c21,0,36.9,15.2,36.9,37.2c0,21.5-15.9,37.2-36.9,37.2c-21,0-36.9-15.2-36.9-37.2
		C164,279,179.4,262.7,200.9,262.7z M200.9,328.9c16.5,0,27.6-12.6,27.6-29c0-16.9-12.1-29-27.6-29c-15.7,0-27.6,12.1-27.6,29
		C173.3,316.4,185.4,328.9,200.9,328.9z"/>
	<path d="M262.3,263.8h8.8v64.1h35.7v8.3h-44.5V263.8z"/>
	<path d="M354.1,263.3h7.5l31.1,72.8h-9.4l-9.3-21.9h-33l-9.2,21.9h-8.9L354.1,263.3z M344.6,305.9h26.1l-13-30.9L344.6,305.9z"/>
</g>
<path class="st0" d="M205.2,119v0.8c24.3,16.7,39.5,41.4,43.1,71.6h1.7c3.6-30.2,18.8-54.9,43.1-71.6V119H205.2z"/>
<g>
	<path d="M176,372.4h-1.8l-2.9-7.6c-0.2-0.5-0.3-0.9-0.4-1.4c-0.2,0.5-0.3,1-0.5,1.5l-2.8,7.5h-1.7l-3.9-11.7h2.2l2.3,7.3
		c0.2,0.6,0.3,1.1,0.4,1.6c0.2-0.5,0.3-1,0.5-1.6l2.6-7.3h1.8l2.7,7.3c0.2,0.5,0.4,1.1,0.5,1.7c0.1-0.6,0.3-1.2,0.5-1.8l2.1-7.2h2.1
		L176,372.4z"/>
	<path d="M191.7,371.1c-1.1,1-2.8,1.5-4.4,1.5c-3.8,0-6.2-2.4-6.2-6.1c0-3.4,2.2-6.1,6-6.1c3,0,5.4,2.1,5.4,5.3c0,0.6-0.1,1-0.1,1.4
		h-8.9c0.2,2.2,1.8,3.5,4.1,3.5c1.5,0,2.8-0.5,3.6-1.2L191.7,371.1z M183.3,365.5h7.1c-0.1-1.9-1.3-3.1-3.4-3.1
		C184.9,362.4,183.5,363.7,183.3,365.5z"/>
	<path d="M195.5,354.2h2.1v14.1c0,1.6,0.4,2.3,1.4,2.3c0.6,0,1.1-0.3,1.5-0.5l0.5,1.6c-0.6,0.5-1.5,0.9-2.7,0.9
		c-1.8,0-2.6-1.1-2.6-3.3V354.2z"/>
	<path d="M203.1,354.2h2.1v14.1c0,1.6,0.4,2.3,1.4,2.3c0.6,0,1.1-0.3,1.5-0.5l0.5,1.6c-0.6,0.5-1.5,0.9-2.7,0.9
		c-1.8,0-2.6-1.1-2.6-3.3V354.2z"/>
	<path d="M210.8,354.2h2.1v7.6c0.8-0.7,2.2-1.4,3.6-1.4c3.5,0,5.5,2.5,5.5,5.9c0,3.8-2.6,6.3-6.5,6.3c-1.9,0-3.6-0.5-4.8-1.3V354.2z
		 M212.9,363.9v6c0.9,0.6,1.8,0.8,2.8,0.8c2.4,0,4.2-1.6,4.2-4.2s-1.6-4.1-3.8-4.1C214.7,362.4,213.5,363.2,212.9,363.9z"/>
	<path d="M235.1,371.1c-1.1,1-2.8,1.5-4.4,1.5c-3.8,0-6.2-2.4-6.2-6.1c0-3.4,2.2-6.1,6-6.1c3,0,5.4,2.1,5.4,5.3c0,0.6-0.1,1-0.1,1.4
		h-8.9c0.2,2.2,1.8,3.5,4.1,3.5c1.5,0,2.8-0.5,3.6-1.2L235.1,371.1z M226.7,365.5h7.1c-0.1-1.9-1.3-3.1-3.4-3.1
		C228.3,362.4,227,363.7,226.7,365.5z"/>
	<path d="M240.3,355.1c0.6,0,1.3,0.5,1.3,1.2c0,0.9-0.6,1.3-1.3,1.3c-0.7,0-1.3-0.5-1.3-1.3C239,355.6,239.6,355.1,240.3,355.1z
		 M239.2,360.7h2.1v11.6h-2.1V360.7z"/>
	<path d="M245.4,360.7h2.1v1.4c0.8-0.9,2.3-1.6,3.8-1.6c3,0,4.8,1.5,4.8,5.1v6.7H254V366c0-2.4-1.1-3.6-3.3-3.6
		c-1.3,0-2.5,0.6-3.3,1.5v8.4h-2.1V360.7z"/>
	<path d="M261.9,370.5c-0.2-0.3-0.3-0.6-0.3-1c0-0.4,0.1-0.7,0.3-1c-1.7-0.7-2.6-2.1-2.6-3.8c0-2.3,1.8-4.3,4.8-4.3
		c1.1,0,2.1,0.3,2.9,0.9l3.4-0.8l0.1,1.7l-2.2,0.5c0.4,0.6,0.5,1.3,0.5,2c0,2.3-1.9,4.2-4.8,4.2c-0.3,0-0.5,0-0.8,0
		c-0.1,0.2-0.1,0.4-0.1,0.6c0,0.3,0.1,0.6,0.2,0.8c0.2,0,0.5,0,0.7,0c3.4,0,5.9,1.2,5.9,3.7c0,2.5-2.5,3.7-5.9,3.7
		c-3.4,0-5.9-1.2-5.9-3.7C258.2,372.1,259.7,370.9,261.9,370.5z M264.1,376c2.4,0,4-0.7,4-2c0-1.3-1.5-2.1-4-2.1c-2.5,0-4,0.8-4,2.1
		C260.1,375.3,261.7,376,264.1,376z M264.1,367.2c1.6,0,2.8-1,2.8-2.5c0-1.4-1.1-2.6-2.8-2.6c-1.7,0-2.8,1.1-2.8,2.6
		C261.3,366.2,262.4,367.2,264.1,367.2z"/>
	<path d="M288.3,370.6c-1,1.3-2.7,1.9-4.5,1.9c-3.7,0-6.2-2.4-6.2-6.1c0-3.4,2.5-6.1,5.9-6.1c1.9,0,3.5,0.4,4.6,1.5l-1,1.6
		c-1-0.9-2.1-1.2-3.3-1.2c-2.1,0-4,1.7-4,4.1c0,2.6,1.9,4.1,4.2,4.1c1.4,0,2.6-0.6,3.3-1.5L288.3,370.6z"/>
	<path d="M290.9,354.2h2.1v14.1c0,1.6,0.4,2.3,1.4,2.3c0.6,0,1.1-0.3,1.5-0.5l0.5,1.6c-0.6,0.5-1.5,0.9-2.7,0.9
		c-1.8,0-2.6-1.1-2.6-3.3V354.2z"/>
	<path d="M300,355.1c0.6,0,1.3,0.5,1.3,1.2c0,0.9-0.6,1.3-1.3,1.3c-0.7,0-1.3-0.5-1.3-1.3C298.7,355.6,299.3,355.1,300,355.1z
		 M299,360.7h2.1v11.6H299V360.7z"/>
	<path d="M305.1,360.7h2.1v1.4c0.8-0.9,2.3-1.6,3.8-1.6c3,0,4.8,1.5,4.8,5.1v6.7h-2.1V366c0-2.4-1.1-3.6-3.3-3.6
		c-1.3,0-2.5,0.6-3.3,1.5v8.4h-2.1V360.7z"/>
	<path d="M320.8,355.1c0.6,0,1.3,0.5,1.3,1.2c0,0.9-0.6,1.3-1.3,1.3c-0.7,0-1.3-0.5-1.3-1.3C319.5,355.6,320.1,355.1,320.8,355.1z
		 M319.7,360.7h2.1v11.6h-2.1V360.7z"/>
	<path d="M335.8,370.6c-1,1.3-2.7,1.9-4.5,1.9c-3.7,0-6.2-2.4-6.2-6.1c0-3.4,2.5-6.1,5.9-6.1c1.9,0,3.5,0.4,4.6,1.5l-1,1.6
		c-1-0.9-2.1-1.2-3.3-1.2c-2.1,0-4,1.7-4,4.1c0,2.6,1.9,4.1,4.2,4.1c1.4,0,2.6-0.6,3.3-1.5L335.8,370.6z"/>
</g>
</svg>
