<?xml version="1.0" encoding="utf-8"?>
<!-- Generator: Adobe Illustrator 25.0.0, SVG Export Plug-In . SVG Version: 6.00 Build 0)  -->
<svg version="1.1" id="Capa_1" xmlns="http://www.w3.org/2000/svg" xmlns:xlink="http://www.w3.org/1999/xlink" x="0px" y="0px"
	 viewBox="0 0 1092.3 490" style="enable-background:new 0 0 1092.3 490;" xml:space="preserve">
<style type="text/css">
	.st0{fill:#325D57;}
</style>
<g>
	<path d="M346.8,200.5c0-25.1,19.4-45.4,52.4-45.4c20.1,0,38,7.2,47.9,18.1L435.7,189c-9.2-9.2-20.1-14.1-35.3-14.1
		c-19.4,0-31.3,10.2-31.3,25.6c0,43,84.9,26.8,84.9,86.2c0,28.6-25.1,47.2-56.6,47.2c-21.4,0-46.2-9.7-54.9-26.1l12.2-14.4
		c10.2,13.4,28.3,20.6,43,20.6c18.1,0,34-9.4,34-27.1C431.8,244.4,346.8,258.1,346.8,200.5"/>
	<path d="M587.5,313.9c39.7,0,66.3-30.3,66.3-69.5c0-40.5-29-69.5-66.3-69.5c-37.7,0-66.3,29-66.3,69.5
		C521.2,283.9,550.3,313.9,587.5,313.9 M587.5,155c50.4,0,88.6,36.5,88.6,89.4c0,51.7-38.2,89.4-88.6,89.4
		c-50.4,0-88.6-36.5-88.6-89.4C498.9,194,535.9,155,587.5,155"/>
	<polygon points="735,157.5 756.1,157.5 756.1,311.5 841.8,311.5 841.8,331.3 735,331.3 	"/>
	<path d="M932.5,258.8H995l-31.3-74.2L932.5,258.8z M955.3,156.5h18.1l74.7,174.8h-22.6l-22.3-52.6H924l-22.1,52.6h-21.4
		L955.3,156.5z"/>
</g>
<path class="st0" d="M44.1,157.5v1.9c58.4,40.1,94.9,99.3,103.5,171.9h4.1c8.6-72.6,45.1-131.8,103.5-171.9v-1.9H44.1z"/>
</svg>
