<?xml version="1.0" encoding="utf-8"?>
<!-- Generator: Adobe Illustrator 23.0.1, SVG Export Plug-In . SVG Version: 6.00 Build 0)  -->
<svg version="1.1" id="Слой_1" xmlns="http://www.w3.org/2000/svg" xmlns:xlink="http://www.w3.org/1999/xlink" x="0px" y="0px"
	 viewBox="0 0 200 200" style="enable-background:new 0 0 200 200;" xml:space="preserve">
<style type="text/css">
	.st0{fill:#325D57;}
</style>
<path class="st0" d="M0,0v200h200V0H0z M196,196H4V4h192V196z"/>
<g>
	<path d="M28.4,117.4c0-5,3.9-9.1,10.5-9.1c4.1,0,7.6,1.4,9.6,3.6l-2.3,3.2c-1.8-1.8-4.1-2.8-7.1-2.8c-3.9,0-6.3,2-6.3,5.1
		c0,8.6,17.1,5.4,17.1,17.3c0,5.7-5,9.5-11.4,9.5c-4.3,0-9.3-1.9-11-5.3l2.5-2.9c2,2.7,5.7,4.1,8.6,4.1c3.6,0,6.8-1.9,6.8-5.5
		C45.4,126.2,28.4,128.9,28.4,117.4z"/>
	<path d="M76.7,108.2c10.1,0,17.8,7.3,17.8,17.9c0,10.4-7.7,17.9-17.8,17.9s-17.8-7.3-17.8-17.9C58.9,116.1,66.3,108.2,76.7,108.2z
		 M76.7,140.2c8,0,13.3-6.1,13.3-14c0-8.2-5.8-14-13.3-14c-7.6,0-13.3,5.8-13.3,14C63.4,134.2,69.2,140.2,76.7,140.2z"/>
	<path d="M106.3,108.8h4.2v30.9h17.2v4h-21.5V108.8z"/>
	<path d="M150.6,108.5h3.6l15,35.1h-4.5l-4.5-10.6h-15.9l-4.4,10.6h-4.3L150.6,108.5z M146,129.1h12.6l-6.3-14.9L146,129.1z"/>
</g>
<path class="st0" d="M78.8,38.9v0.4c11.7,8.1,19.1,20,20.8,34.5h0.8c1.7-14.6,9.1-26.5,20.8-34.5v-0.4H78.8z"/>
<g>
	<path d="M64.7,161.2h-0.9l-1.4-3.7c-0.1-0.2-0.1-0.4-0.2-0.7c-0.1,0.2-0.1,0.5-0.2,0.7l-1.4,3.6h-0.8l-1.9-5.6H59l1.1,3.5
		c0.1,0.3,0.1,0.5,0.2,0.8c0.1-0.2,0.1-0.5,0.2-0.8l1.3-3.5h0.9L64,159c0.1,0.2,0.2,0.5,0.2,0.8c0-0.3,0.1-0.6,0.2-0.9l1-3.5h1
		L64.7,161.2z"/>
	<path d="M72.3,160.5c-0.5,0.5-1.4,0.7-2.1,0.7c-1.8,0-3-1.2-3-2.9c0-1.6,1.1-2.9,2.9-2.9c1.4,0,2.6,1,2.6,2.6c0,0.3,0,0.5,0,0.7
		h-4.3c0.1,1.1,0.9,1.7,2,1.7c0.7,0,1.4-0.2,1.7-0.6L72.3,160.5z M68.2,157.8h3.4c0-0.9-0.6-1.5-1.6-1.5
		C69,156.3,68.3,157,68.2,157.8z"/>
	<path d="M74.1,152.4h1v6.8c0,0.8,0.2,1.1,0.7,1.1c0.3,0,0.5-0.1,0.7-0.2l0.2,0.8c-0.3,0.2-0.7,0.4-1.3,0.4c-0.9,0-1.3-0.5-1.3-1.6
		L74.1,152.4L74.1,152.4z"/>
	<path d="M77.8,152.4h1v6.8c0,0.8,0.2,1.1,0.7,1.1c0.3,0,0.5-0.1,0.7-0.2l0.2,0.8c-0.3,0.2-0.7,0.4-1.3,0.4c-0.9,0-1.3-0.5-1.3-1.6
		L77.8,152.4L77.8,152.4z"/>
	<path d="M81.5,152.4h1v3.7c0.4-0.3,1.1-0.7,1.7-0.7c1.7,0,2.7,1.2,2.7,2.8c0,1.8-1.3,3-3.1,3c-0.9,0-1.7-0.2-2.3-0.6L81.5,152.4
		L81.5,152.4z M82.5,157.1v2.9c0.4,0.3,0.9,0.4,1.4,0.4c1.2,0,2-0.8,2-2s-0.8-2-1.8-2C83.4,156.3,82.8,156.7,82.5,157.1z"/>
	<path d="M93.2,160.5c-0.5,0.5-1.4,0.7-2.1,0.7c-1.8,0-3-1.2-3-2.9c0-1.6,1.1-2.9,2.9-2.9c1.4,0,2.6,1,2.6,2.6c0,0.3,0,0.5,0,0.7
		h-4.3c0.1,1.1,0.9,1.7,2,1.7c0.7,0,1.4-0.2,1.7-0.6L93.2,160.5z M89.1,157.8h3.4c0-0.9-0.6-1.5-1.6-1.5
		C89.9,156.3,89.3,157,89.1,157.8z"/>
	<path d="M95.7,152.8c0.3,0,0.6,0.2,0.6,0.6c0,0.4-0.3,0.6-0.6,0.6c-0.3,0-0.6-0.2-0.6-0.6C95.1,153.1,95.4,152.8,95.7,152.8z
		 M95.2,155.5h1v5.6h-1V155.5z"/>
	<path d="M98.2,155.5h1v0.7c0.4-0.4,1.1-0.8,1.8-0.8c1.4,0,2.3,0.7,2.3,2.5v3.2h-1v-3c0-1.2-0.5-1.7-1.6-1.7c-0.6,0-1.2,0.3-1.6,0.7
		v4.1h-1L98.2,155.5L98.2,155.5z"/>
	<path d="M106.1,160.3c-0.1-0.1-0.1-0.3-0.1-0.5c0-0.2,0-0.3,0.1-0.5c-0.8-0.3-1.3-1-1.3-1.8c0-1.1,0.9-2.1,2.3-2.1
		c0.5,0,1,0.1,1.4,0.4l1.6-0.4l0,0.8l-1.1,0.2c0.2,0.3,0.2,0.6,0.2,1c0,1.1-0.9,2-2.3,2c-0.1,0-0.2,0-0.4,0c0,0.1,0,0.2,0,0.3
		c0,0.1,0,0.3,0.1,0.4c0.1,0,0.2,0,0.3,0c1.6,0,2.8,0.6,2.8,1.8c0,1.2-1.2,1.8-2.8,1.8c-1.6,0-2.8-0.6-2.8-1.8
		C104.3,161,105.1,160.4,106.1,160.3z M107.2,162.9c1.2,0,1.9-0.3,1.9-1s-0.7-1-1.9-1c-1.2,0-1.9,0.4-1.9,1
		C105.3,162.6,106,162.9,107.2,162.9z M107.2,158.7c0.8,0,1.4-0.5,1.4-1.2c0-0.7-0.5-1.3-1.4-1.3c-0.8,0-1.4,0.5-1.4,1.3
		C105.8,158.2,106.4,158.7,107.2,158.7z"/>
	<path d="M118.9,160.3c-0.5,0.6-1.3,0.9-2.2,0.9c-1.8,0-3-1.2-3-2.9c0-1.6,1.2-2.9,2.8-2.9c0.9,0,1.7,0.2,2.2,0.7l-0.5,0.8
		c-0.5-0.4-1-0.6-1.6-0.6c-1,0-1.9,0.8-1.9,2c0,1.3,0.9,2,2,2c0.7,0,1.3-0.3,1.6-0.7L118.9,160.3z"/>
	<path d="M120.1,152.4h1v6.8c0,0.8,0.2,1.1,0.7,1.1c0.3,0,0.5-0.1,0.7-0.2l0.2,0.8c-0.3,0.2-0.7,0.4-1.3,0.4c-0.9,0-1.3-0.5-1.3-1.6
		L120.1,152.4L120.1,152.4z"/>
	<path d="M124.5,152.8c0.3,0,0.6,0.2,0.6,0.6c0,0.4-0.3,0.6-0.6,0.6c-0.3,0-0.6-0.2-0.6-0.6C123.9,153.1,124.2,152.8,124.5,152.8z
		 M124,155.5h1v5.6h-1V155.5z"/>
	<path d="M127,155.5h1v0.7c0.4-0.4,1.1-0.8,1.8-0.8c1.4,0,2.3,0.7,2.3,2.5v3.2h-1v-3c0-1.2-0.5-1.7-1.6-1.7c-0.6,0-1.2,0.3-1.6,0.7
		v4.1h-1L127,155.5L127,155.5z"/>
	<path d="M134.5,152.8c0.3,0,0.6,0.2,0.6,0.6c0,0.4-0.3,0.6-0.6,0.6c-0.3,0-0.6-0.2-0.6-0.6C133.9,153.1,134.2,152.8,134.5,152.8z
		 M134,155.5h1v5.6h-1V155.5z"/>
	<path d="M141.8,160.3c-0.5,0.6-1.3,0.9-2.2,0.9c-1.8,0-3-1.2-3-2.9c0-1.6,1.2-2.9,2.8-2.9c0.9,0,1.7,0.2,2.2,0.7l-0.5,0.8
		c-0.5-0.4-1-0.6-1.6-0.6c-1,0-1.9,0.8-1.9,2c0,1.3,0.9,2,2,2c0.7,0,1.3-0.3,1.6-0.7L141.8,160.3z"/>
</g>
</svg>
