<?xml version="1.0" encoding="utf-8"?>
<!-- Generator: Adobe Illustrator 23.0.1, SVG Export Plug-In . SVG Version: 6.00 Build 0)  -->
<svg version="1.1" id="Слой_1" xmlns="http://www.w3.org/2000/svg" xmlns:xlink="http://www.w3.org/1999/xlink" x="0px" y="0px"
	 viewBox="0 0 110 110" style="enable-background:new 0 0 110 110;" xml:space="preserve" width="156px">
<style type="text/css">
	.st0{opacity:0.18;}
	.st1{fill:#FFFFFF;}
</style>
<g class="st0">
	<g transform="translate(-1 -1)">
		<g>
			<g>
				<g>
					<path class="st1" d="M86.9,111c-0.1,0-0.1,0-0.1,0c-7.2,0-15.1-2.2-23.4-6.4c-9.9-5.1-20.6-13.3-31.6-24.3
						C18.1,66.7,8.9,53.7,4.4,41.9C0.8,32.6,0.1,24,2.2,16.4c1-3.7,3.5-6.9,6.8-8.8l8.9-5.4c3.9-2.3,8.9-1.2,11.4,2.6l14.2,21.3
						c2.4,3.7,1.6,8.7-1.8,11.4l-8,6.2c-0.1,0.1-0.2,0.3-0.1,0.5l0.7,1.2c2.1,3.8,4.6,8.5,14.2,18.1s14.3,12.2,18.1,14.2l1.2,0.7
						c0.2,0.1,0.4,0.1,0.5-0.1l0,0l6.2-8c2.7-3.5,7.7-4.3,11.4-1.9l21.3,14.2c3.8,2.5,4.9,7.5,2.6,11.4l-5.4,8.9
						c-2,3.3-5.1,5.7-8.8,6.8h0C92.8,110.6,89.8,111,86.9,111z M22.2,5.5c-0.7,0-1.4,0.2-2,0.6l-9,5.4c-2.3,1.4-4,3.5-4.7,6.1
						c-1.8,6.7-1.2,14.3,2,22.6c4.3,11.3,13.2,23.7,26.3,36.8c19.2,19.2,37.2,29.4,51.9,29.4c2.6,0,5.2-0.3,7.7-1
						c2.6-0.7,4.7-2.4,6.1-4.7v0l5.4-8.9c1.1-1.8,0.6-4.1-1.2-5.3l0,0L83.4,72.2c-1.7-1.1-4-0.7-5.3,0.9l-6.2,8
						c-1.5,1.9-4.2,2.5-6.3,1.3l-1.2-0.7c-4-2.2-9.1-4.9-19.2-15c-10.1-10.1-12.8-15.1-15-19.2l-0.7-1.2c-1.2-2.1-0.6-4.8,1.3-6.3
						l8-6.2c1.6-1.3,2-3.6,0.9-5.3L25.5,7.2C24.7,6.1,23.5,5.5,22.2,5.5z"/>
				</g>
			</g>
		</g>
	</g>
	<path class="st1" d="M60.1,19.8C76.6,19.9,90,33.2,90,49.7c0,1,0.8,1.7,1.7,1.7c0.9,0,1.7-0.8,1.7-1.7c0-18.4-15-33.4-33.4-33.4
		c-1,0-1.7,0.8-1.7,1.7S59.2,19.8,60.1,19.8z"/>
	<path class="st1" d="M60.1,30.4c10.7,0,19.3,8.7,19.3,19.3c0,1,0.8,1.7,1.7,1.7c1,0,1.7-0.8,1.7-1.7c0-12.6-10.2-22.9-22.9-22.9
		c-1,0-1.7,0.8-1.7,1.7C58.4,29.6,59.2,30.4,60.1,30.4z"/>
	<path class="st1" d="M60.1,40.9c4.8,0,8.8,3.9,8.8,8.8c0,1,0.8,1.7,1.7,1.7c1,0,1.7-0.8,1.7-1.7c0-6.8-5.5-12.3-12.3-12.3
		c-1,0-1.7,0.8-1.7,1.7C58.4,40.1,59.2,40.9,60.1,40.9z"/>
</g>
</svg>
