<?xml version="1.0" encoding="utf-8"?>
<!-- Generator: Adobe Illustrator 23.0.1, SVG Export Plug-In . SVG Version: 6.00 Build 0)  -->
<svg version="1.1" id="Слой_1" xmlns="http://www.w3.org/2000/svg" xmlns:xlink="http://www.w3.org/1999/xlink" x="0px" y="0px"
	 viewBox="0 0 20 20" style="enable-background:new 0 0 20 20;" xml:space="preserve" width="20px" height="20px">
<path d="M19.8,18.7l-4.9-4.9c1.2-1.5,1.9-3.3,1.9-5.4c0-4.6-3.8-8.4-8.4-8.4C3.8,0,0,3.8,0,8.4c0,4.6,3.8,8.4,8.4,8.4
	c2,0,3.9-0.7,5.4-1.9l4.9,4.9c0.2,0.2,0.4,0.2,0.5,0.2s0.4-0.1,0.5-0.2C20.1,19.5,20.1,19,19.8,18.7z M1.6,8.4
	c0-3.8,3.1-6.9,6.9-6.9c3.8,0,6.9,3.1,6.9,6.9c0,3.8-3.1,6.9-6.9,6.9C4.6,15.3,1.6,12.2,1.6,8.4z"/>
</svg>
