<?xml version="1.0" encoding="utf-8"?>
<!-- Generator: Adobe Illustrator 25.0.0, SVG Export Plug-In . SVG Version: 6.00 Build 0)  -->
<svg version="1.1" id="Capa_1" xmlns="http://www.w3.org/2000/svg" xmlns:xlink="http://www.w3.org/1999/xlink" x="0px" y="0px"
	 viewBox="0 0 490 490" style="enable-background:new 0 0 490 490;" xml:space="preserve">
<g>
	<g>
		<path d="M367.1,0H122.5C55.2,0,0,55.2,0,122.9v244.6C0,434.8,55.2,490,122.5,490h244.6c67.7,0,122.9-55.2,122.9-122.9
			V122.9C490,55.2,434.8,0,367.1,0z M310.7,245h-46.3v151.7h-58.3V245H175v-62.2h27.2v-26.4c0-24.9,12.4-64.2,64.9-64.2H315v51.7
			h-33.8c-5.4,0-12.8,3.5-12.8,15.6v23.3h47.8L310.7,245z"/>
	</g>
</g>
</svg>
