<?xml version="1.0" encoding="utf-8"?>
<!-- Generator: Adobe Illustrator 25.0.0, SVG Export Plug-In . SVG Version: 6.00 Build 0)  -->
<svg version="1.1" id="Capa_1" xmlns="http://www.w3.org/2000/svg" xmlns:xlink="http://www.w3.org/1999/xlink" x="0px" y="0px"
	 viewBox="0 0 490 490" style="enable-background:new 0 0 490 490;" xml:space="preserve">
<g>
	<g>
		<path d="M336.9,0H153.1C68.6,0,0,68.6,0,153.1v183.8C0,421.4,68.6,490,153.1,490h183.8c84.6,0,153.1-68.6,153.1-153.1
			V153.1C490,68.6,421.4,0,336.9,0z M444.1,336.9c0,59.1-48.1,107.2-107.2,107.2H153.1C94,444.1,45.9,396,45.9,336.9V153.1
			C45.9,94,94,45.9,153.1,45.9h183.8c59.1,0,107.2,48.1,107.2,107.2V336.9z"/>
	</g>
</g>
<g>
	<g>
		<path d="M245,122.5c-67.7,0-122.5,54.8-122.5,122.5S177.3,367.5,245,367.5S367.5,312.7,367.5,245
			S312.7,122.5,245,122.5z M245,321.6c-42.2,0-76.6-34.4-76.6-76.6c0-42.2,34.4-76.6,76.6-76.6s76.6,34.3,76.6,76.6
			C321.6,287.2,287.2,321.6,245,321.6z"/>
	</g>
</g>
<g>
	<g>
		<circle  cx="376.7" cy="113.3" r="16.3"/>
	</g>
</g>
</svg>
