<?xml version="1.0" encoding="utf-8"?>
<!-- Generator: Adobe Illustrator 23.0.1, SVG Export Plug-In . SVG Version: 6.00 Build 0)  -->
<svg version="1.1" id="Слой_1" xmlns="http://www.w3.org/2000/svg" xmlns:xlink="http://www.w3.org/1999/xlink" x="0px" y="0px"
	 viewBox="0 0 100 100" style="enable-background:new 0 0 100 100;" xml:space="preserve">
<style type="text/css">
	.st0{fill:#325D57;}
</style>
<g transform="translate(-1 -1)">
	<g>
		<g>
			<path class="st0" d="M98.4,78.2L78.1,64.7c-2.6-1.7-6-1.1-7.9,1.3l-5.9,7.6c-0.7,1-2.1,1.3-3.2,0.7L60,73.6
				c-3.7-2-8.4-4.5-17.7-13.9S30.5,45.8,28.4,42l-0.6-1.1c-0.6-1.1-0.3-2.5,0.7-3.3l7.6-5.9c2.4-1.9,3-5.3,1.3-7.9L23.9,3.6
				c-1.7-2.6-5.2-3.4-7.9-1.8L7.5,6.9C4.8,8.5,2.9,11,2,14c-3,11.1-0.7,30.3,27.5,58.5C52,95,68.7,101,80.2,101c2.6,0,5.3-0.3,7.8-1
				c3-0.8,5.5-2.8,7.1-5.5l5.1-8.4C101.8,83.4,101,79.9,98.4,78.2z"/>
		</g>
	</g>
</g>
</svg>
