<?xml version="1.0" encoding="utf-8"?>
<!-- Generator: Adobe Illustrator 23.0.1, SVG Export Plug-In . SVG Version: 6.00 Build 0)  -->
<svg version="1.1" id="Слой_1" xmlns="http://www.w3.org/2000/svg" xmlns:xlink="http://www.w3.org/1999/xlink" x="0px" y="0px"
	 viewBox="0 0 653.6 653.6" style="enable-background:new 0 0 653.6 653.6;" xml:space="preserve">
<style type="text/css">
	.st0{fill:none;stroke:#325D57;stroke-width:27;stroke-miterlimit:10;}
</style>
<g>
	<path class="st0" d="M623.7,496.9l-126.8-84.6c-16.1-10.6-37.7-7.1-49.6,8.1l-36.9,47.5c-4.7,6.3-13.4,8.1-20.2,4.3l-7-3.9
		c-23.3-12.7-52.3-28.5-110.7-86.9c-58.4-58.4-74.2-87.4-86.9-110.7l-3.9-7c-3.9-6.9-2.1-15.5,4.2-20.3l47.5-36.9
		c15.2-11.9,18.7-33.5,8.1-49.6L156.7,29.9c-10.9-16.4-32.8-21.3-49.6-11.2L54,50.6c-16.7,9.8-28.9,25.7-34.1,44.3
		c-19.1,69.6-4.7,189.7,172.2,366.6c140.7,140.7,245.5,178.6,317.5,178.6c16.6,0.1,33.1-2.1,49.1-6.4c18.6-5.2,34.5-17.4,44.3-34.1
		l31.9-53C645,529.7,640.1,507.8,623.7,496.9z"/>
</g>
</svg>
