<?xml version="1.0" encoding="utf-8"?>
<!-- Generator: Adobe Illustrator 23.0.1, SVG Export Plug-In . SVG Version: 6.00 Build 0)  -->
<svg version="1.1" id="Слой_1" xmlns="http://www.w3.org/2000/svg" xmlns:xlink="http://www.w3.org/1999/xlink" x="0px" y="0px"
	 viewBox="0 0 450 432" style="enable-background:new 0 0 450 432;" xml:space="preserve">
<g>
	<path d="M137.5,244.2H6c-5.2,0-9.4-4.2-9.4-9.4V9.4C-3.4,4.2,0.8,0,6,0h131.5c5.2,0,9.4,4.2,9.4,9.4v225.4
		C146.9,240,142.6,244.2,137.5,244.2z M15.4,225.4h112.7V18.8H15.4V225.4z"/>
	<path d="M240.8,432c-12.3-0.2-24.2-4.2-34.1-11.4c-2.2-1.8-3.5-4.5-3.5-7.3v-63.7l-54.1-117.2l-15.8-7.9
		c-3.2-1.6-5.2-4.8-5.2-8.4V46.9c0-2.5,1-4.9,2.7-6.7c18.1-13.8,40.2-21.3,63-21.5h173.8c23.3,0,42.2,18.9,42.3,42.3
		c0,6.5-1.5,13-4.4,18.8c20.7,10.4,29.1,35.6,18.8,56.4c20.7,10.4,29.1,35.6,18.7,56.4c-2,4-4.6,7.6-7.8,10.8
		c7.9,8.6,12.2,19.8,12.2,31.5c0,25.9-21,47-47,47H282.1c8.6,24.2,13.6,49.5,15,75.1C297.1,397.6,262.5,432,240.8,432z M222,408.2
		c5.7,3.2,12.2,5,18.8,5.1c10.3,0,37.6-25.6,37.6-56.4c-2.2-27.8-8.3-55.1-18.2-81.2c-1.8-4.8,0.6-10.3,5.4-12.1
		c1.1-0.4,2.2-0.6,3.3-0.6h131.5c15.6-0.1,28.1-12.9,27.9-28.4c-0.1-9.6-5.1-18.6-13.2-23.7c-4.4-2.7-5.8-8.5-3.1-12.9
		c0.9-1.5,2.2-2.6,3.7-3.4c11.5-5.7,16.2-19.7,10.4-31.2c-3.6-7.1-10.5-11.9-18.4-12.8c-5.2-0.6-8.9-5.2-8.3-10.4
		c0.3-2.2,1.3-4.3,2.9-5.8c9.4-8.8,9.9-23.5,1.2-32.9c-3.8-4.1-9-6.7-14.6-7.3c-5.2-0.6-8.9-5.2-8.3-10.4c0.3-2.2,1.3-4.3,2.9-5.8
		c4.7-4.4,7.4-10.6,7.4-17c0-13-10.5-23.5-23.5-23.5H193.8c-16.6,0.5-32.7,5.2-47,13.7v159l13.6,6.8c1.9,1,3.4,2.5,4.3,4.5
		l56.4,122.1c0.6,1.2,0.9,2.6,0.9,4V408.2z"/>
	<path d="M137.5,244.2H6c-5.2,0-9.4-4.2-9.4-9.4V9.4C-3.4,4.2,0.8,0,6,0h131.5c5.2,0,9.4,4.2,9.4,9.4v225.4
		C146.9,240,142.6,244.2,137.5,244.2z M15.4,225.4h112.7V18.8H15.4V225.4z"/>
	<path d="M240.8,432c-12.3-0.2-24.2-4.2-34-11.4c-2.2-1.8-3.5-4.5-3.5-7.3v-63.7l-54.1-117.2l-15.8-7.9
		c-4.6-2.3-6.5-8-4.2-12.6s8-6.5,12.6-4.2l18.8,9.4c1.9,1,3.4,2.5,4.3,4.5l56.4,122.1c0.6,1.2,0.9,2.6,0.9,4v60.7
		c5.7,3.2,12.2,5,18.8,5.1c10.3,0,37.6-25.6,37.6-56.4c-2.2-27.8-8.3-55.1-18.2-81.2c-1.8-4.8,0.6-10.3,5.4-12.1
		c1.1-0.4,2.2-0.6,3.3-0.6h131.5c15.6-0.1,28.1-12.9,27.9-28.4c-0.1-9.6-5.1-18.6-13.2-23.7c-4.4-2.7-5.8-8.5-3.1-12.9
		c0.9-1.5,2.2-2.6,3.7-3.4c11.5-5.7,16.2-19.7,10.4-31.2c-3.6-7.1-10.5-11.9-18.4-12.8c-5.2-0.6-8.9-5.2-8.3-10.4
		c0.3-2.2,1.3-4.3,2.9-5.8c9.4-8.8,9.9-23.5,1.2-32.9c-3.8-4.1-9-6.7-14.6-7.3c-5.2-0.6-8.9-5.2-8.3-10.4c0.3-2.2,1.3-4.3,2.9-5.8
		c4.7-4.4,7.4-10.6,7.4-17c0-13-10.5-23.5-23.5-23.5H193.8c-17.8,0.3-35.1,5.9-49.7,16c-3.7,3.6-9.7,3.5-13.3-0.2
		c-3.5-3.6-3.5-9.4,0-13.1c18.1-13.8,40.2-21.4,63-21.5h173.8c23.3,0,42.2,18.9,42.3,42.3c0,6.5-1.5,13-4.4,18.8
		c20.7,10.4,29.1,35.6,18.8,56.4c20.7,10.4,29.1,35.6,18.7,56.4c-2,4-4.6,7.6-7.8,10.8c7.9,8.6,12.2,19.8,12.2,31.5
		c0,25.9-21,47-47,47H282.1c8.6,24.2,13.6,49.5,15,75.1C297.1,397.6,262.5,432,240.8,432z"/>
</g>
</svg>
